<svg width="180" height="42" viewBox="0 0 180 42" fill="none" xmlns="http://www.w3.org/2000/svg">
<rect width="180" height="42" fill="#F5F5F5"/>
<g id="&#208;&#147;&#208;&#187;&#208;&#176;&#208;&#178;&#208;&#189;&#208;&#176;&#209;&#143; &#209;&#129;&#209;&#130;&#209;&#128;&#208;&#176;&#208;&#189;&#208;&#184;&#209;&#134;&#208;&#176;">
<rect width="1280" height="1845" transform="translate(-550 -1586)" fill="white"/>
<g id="footer">
<rect id="Rectangle 3" x="-550" y="-32" width="1280" height="291" fill="#474A51"/>
<g id="&#208;&#155;&#208;&#190;&#208;&#179;&#208;&#190;&#209;&#130;&#208;&#184;&#208;&#191;">
<path id="Vector" d="M0 1.06651V0.355503H3.15429L7.78057 17.8817L13.7738 0.355503H15.2107L21.1338 17.8462L25.8302 0.355503H28.8793V1.06651L22.2553 25.525H20.7482L14.4397 7.14559L8.096 25.525H6.58895L0 1.06651ZM38.6236 0.0711018H40.4811L50.6449 25.2406H47.035L44.5466 18.8416H34.4529L31.9996 25.2406H28.5649L38.6236 0.0711018ZM35.5744 15.9265H43.39L39.4647 5.86578L35.5744 15.9265ZM61.4149 0.355503C62.6299 0.355503 63.728 0.545104 64.7094 0.924306C65.7141 1.27981 66.5669 1.78936 67.2678 2.45296C67.9688 3.09287 68.5062 3.86312 68.88 4.76373C69.2772 5.66433 69.4758 6.64788 69.4758 7.71439C69.4758 9.4208 68.9968 10.9258 68.0389 12.2293C67.1043 13.5328 65.8192 14.4215 64.1836 14.8955L71.7539 24.4941V25.2406H68.2141L60.3284 15.251H57.6998V25.2406H54.4054V0.355503H61.4149ZM61.1345 12.2293C61.9289 12.2293 62.6299 12.1226 63.2374 11.9093C63.8682 11.6723 64.3939 11.3524 64.8145 10.9495C65.2351 10.5466 65.5505 10.0726 65.7608 9.52745C65.9711 8.98235 66.0762 8.38984 66.0762 7.74994C66.0762 6.51753 65.6556 5.48658 64.8145 4.65707C63.9967 3.80387 62.7817 3.37727 61.1695 3.37727H57.6998V12.2293H61.1345ZM77.246 0.355503H79.5942L87.1996 19.0549L94.4895 0.355503H96.8727L100.483 25.2406H97.2933L94.7348 7.39444L87.6201 25.3828H86.6038L79.3839 7.64329L77.1409 25.2406H73.9516L77.246 0.355503ZM126.378 25.5961C124.415 25.5961 122.616 25.288 120.98 24.6718C119.368 24.0319 117.978 23.1432 116.81 22.0056C115.665 20.868 114.765 19.517 114.111 17.9528C113.48 16.3886 113.165 14.6822 113.165 12.8336C113.165 10.985 113.48 9.2786 114.111 7.71439C114.742 6.15018 115.63 4.79928 116.775 3.66167C117.943 2.50036 119.322 1.59976 120.91 0.959856C122.523 0.319953 124.31 0 126.273 0C127.908 0 129.369 0.213302 130.654 0.639905C131.962 1.06651 133.119 1.62346 134.123 2.31076L132.651 5.01258C131.787 4.39637 130.829 3.92237 129.777 3.59057C128.726 3.25877 127.628 3.09287 126.483 3.09287C125.034 3.09287 123.703 3.34172 122.488 3.83942C121.296 4.31342 120.256 4.98888 119.368 5.86578C118.504 6.71899 117.826 7.73809 117.336 8.9231C116.845 10.1081 116.6 11.3998 116.6 12.7981C116.6 14.1964 116.845 15.488 117.336 16.673C117.826 17.858 118.515 18.8771 119.403 19.7304C120.291 20.5836 121.354 21.259 122.593 21.7567C123.831 22.2307 125.186 22.4677 126.658 22.4677C127.78 22.4677 128.89 22.3018 129.988 21.97C131.109 21.6382 132.126 21.0694 133.037 20.2636L134.614 22.8943C133.796 23.6053 132.698 24.2334 131.32 24.7785C129.941 25.3236 128.294 25.5961 126.378 25.5961ZM146.163 0.0711018H148.02L158.184 25.2406H154.574L152.086 18.8416H141.992L139.538 25.2406H136.104L146.163 0.0711018ZM143.113 15.9265H150.929L147.004 5.86578L143.113 15.9265ZM168.954 0.355503C170.169 0.355503 171.267 0.545104 172.249 0.924306C173.253 1.27981 174.106 1.78936 174.807 2.45296C175.508 3.09287 176.045 3.86312 176.419 4.76373C176.816 5.66433 177.015 6.64788 177.015 7.71439C177.015 9.4208 176.536 10.9258 175.578 12.2293C174.644 13.5328 173.358 14.4215 171.723 14.8955L179.293 24.4941V25.2406H175.753L167.868 15.251H165.239V25.2406H161.945V0.355503H168.954ZM168.674 12.2293C169.468 12.2293 170.169 12.1226 170.777 11.9093C171.407 11.6723 171.933 11.3524 172.354 10.9495C172.774 10.5466 173.09 10.0726 173.3 9.52745C173.51 8.98235 173.615 8.38984 173.615 7.74994C173.615 6.51753 173.195 5.48658 172.354 4.65707C171.536 3.80387 170.321 3.37727 168.709 3.37727H165.239V12.2293H168.674Z" fill="#F5F5F5"/>
<path id="Vector_2" d="M4.45437 38.6668C4.32974 38.6668 4.19735 38.655 4.05716 38.6313V38.0032C4.22072 38.0269 4.34532 38.0388 4.431 38.0388C4.68022 38.0388 4.8983 37.9558 5.08522 37.7899C5.27214 37.624 5.4279 37.391 5.55252 37.0908L5.61094 36.9604L2.4917 30.5258V30.277H3.05246L5.903 36.2376L8.3797 30.277H8.92878V30.5258L6.07824 37.2804C5.85237 37.8096 5.60704 38.1731 5.34224 38.3706C5.07743 38.568 4.78148 38.6668 4.45437 38.6668ZM10.4555 33.9979H8.74989V33.4409H12.7687V33.9979H11.063V38.572H10.4555V33.9979ZM15.5868 38.6668C15.2209 38.6668 14.8782 38.6036 14.5588 38.4772C14.2473 38.3509 13.9747 38.1691 13.741 37.9321C13.5074 37.6951 13.3204 37.4107 13.1802 37.0789C13.0479 36.7471 12.9816 36.3758 12.9816 35.965C12.9816 35.5543 13.0517 35.1869 13.1919 34.863C13.34 34.539 13.5307 34.2664 13.7644 34.0453C14.0059 33.8161 14.2784 33.6424 14.5821 33.5239C14.8859 33.4054 15.2013 33.3461 15.5284 33.3461C15.9256 33.3461 16.2723 33.4212 16.5682 33.5713C16.8719 33.7135 17.1251 33.8991 17.3275 34.1282C17.5301 34.3574 17.682 34.6181 17.7832 34.9104C17.8845 35.1948 17.935 35.4832 17.935 35.7754V36.0954H13.5775C13.5853 36.4035 13.6437 36.68 13.7527 36.9249C13.8695 37.1697 14.0214 37.383 14.2083 37.5648C14.3952 37.7385 14.6055 37.8729 14.8392 37.9677C15.0807 38.0625 15.3377 38.1099 15.6102 38.1099C15.9763 38.1099 16.3074 38.0388 16.6032 37.8966C16.8992 37.7465 17.1485 37.5529 17.3509 37.3159L17.7481 37.6833C17.4677 38.0229 17.1406 38.2718 16.7668 38.4298C16.3929 38.5879 15.9997 38.6668 15.5868 38.6668ZM15.5168 33.9031C15.2831 33.9031 15.0611 33.9426 14.8508 34.0216C14.6406 34.1005 14.4498 34.2152 14.2784 34.3652C14.1071 34.5074 13.963 34.6812 13.8461 34.8867C13.7372 35.0921 13.6592 35.3173 13.6125 35.5621H17.3275C17.3042 35.333 17.2458 35.1197 17.1523 34.9222C17.0588 34.7168 16.9343 34.539 16.7785 34.3889C16.6228 34.2389 16.4397 34.1204 16.2294 34.0334C16.0191 33.9465 15.7817 33.9031 15.5168 33.9031ZM18.9375 33.4409H22.9096V38.572H22.3021V33.9979H19.5334V38.572H18.9375V33.4409ZM23.7484 38.6313C23.6862 38.6313 23.6355 38.6273 23.5965 38.6194C23.5577 38.6116 23.5304 38.6036 23.5148 38.5957V37.9677C23.546 37.9755 23.6005 37.9795 23.6783 37.9795C23.7718 37.9795 23.8652 37.948 23.9587 37.8847C24.06 37.8136 24.1496 37.6714 24.2274 37.4581C24.3131 37.2448 24.3793 36.9407 24.426 36.5457C24.4806 36.1428 24.5078 35.6095 24.5078 34.9459V33.4409H27.7672V38.572H27.1597V33.9979H25.0802V35.2659C25.0802 35.9058 25.0452 36.443 24.9751 36.8775C24.905 37.3041 24.8077 37.6477 24.683 37.9084C24.5662 38.1691 24.426 38.3547 24.2624 38.4654C24.0989 38.576 23.9276 38.6313 23.7484 38.6313ZM29.012 33.4409H29.6078V37.3515L32.9607 33.4409H33.1826V38.572H32.5868V34.6496L29.2339 38.572H29.012V33.4409ZM35.6985 33.9979H33.9928V33.4409H38.0116V33.9979H36.306V38.572H35.6985V33.9979ZM40.8299 38.6668C40.4638 38.6668 40.1211 38.6036 39.8018 38.4772C39.4902 38.3509 39.2177 38.1691 38.9841 37.9321C38.7504 37.6951 38.5635 37.4107 38.4233 37.0789C38.2908 36.7471 38.2247 36.3758 38.2247 35.965C38.2247 35.5543 38.2948 35.1869 38.435 34.863C38.5829 34.539 38.7738 34.2664 39.0074 34.0453C39.2488 33.8161 39.5215 33.6424 39.8252 33.5239C40.1289 33.4054 40.4444 33.3461 40.7715 33.3461C41.1687 33.3461 41.5152 33.4212 41.8112 33.5713C42.115 33.7135 42.368 33.8991 42.5706 34.1282C42.773 34.3574 42.9249 34.6181 43.0262 34.9104C43.1274 35.1948 43.1781 35.4832 43.1781 35.7754V36.0954H38.8205C38.8282 36.4035 38.8867 36.68 38.9957 36.9249C39.1126 37.1697 39.2644 37.383 39.4514 37.5648C39.6383 37.7385 39.8486 37.8729 40.0822 37.9677C40.3236 38.0625 40.5806 38.1099 40.8533 38.1099C41.2192 38.1099 41.5503 38.0388 41.8463 37.8966C42.1421 37.7465 42.3914 37.5529 42.594 37.3159L42.9912 37.6833C42.7108 38.0229 42.3837 38.2718 42.0098 38.4298C41.636 38.5879 41.2426 38.6668 40.8299 38.6668ZM40.7598 33.9031C40.5261 33.9031 40.3042 33.9426 40.0939 34.0216C39.8836 34.1005 39.6927 34.2152 39.5215 34.3652C39.35 34.5074 39.206 34.6812 39.0892 34.8867C38.9801 35.0921 38.9023 35.3173 38.8555 35.5621H42.5706C42.5472 35.333 42.4888 35.1197 42.3954 34.9222C42.3019 34.7168 42.1772 34.539 42.0215 34.3889C41.8657 34.2389 41.6827 34.1204 41.4724 34.0334C41.2621 33.9465 41.0246 33.9031 40.7598 33.9031ZM43.6119 38.6313C43.5496 38.6313 43.4991 38.6273 43.4601 38.6194C43.4211 38.6116 43.3939 38.6036 43.3783 38.5957V37.9677C43.4094 37.9755 43.464 37.9795 43.5418 37.9795C43.6353 37.9795 43.7288 37.948 43.8222 37.8847C43.9234 37.8136 44.0131 37.6714 44.0909 37.4581C44.1767 37.2448 44.2428 36.9407 44.2895 36.5457C44.344 36.1428 44.3713 35.6095 44.3713 34.9459V33.4409H47.6307V38.572H47.0232V33.9979H44.9438V35.2659C44.9438 35.9058 44.9087 36.443 44.8386 36.8775C44.7685 37.3041 44.6711 37.6477 44.5466 37.9084C44.4297 38.1691 44.2895 38.3547 44.126 38.4654C43.9624 38.576 43.7911 38.6313 43.6119 38.6313ZM48.8755 33.4409H49.4713V37.3515L52.8242 33.4409H53.0462V38.572H52.4504V34.6496L49.0975 38.572H48.8755V33.4409ZM56.4588 38.0151H57.0663C57.2999 37.628 57.4635 37.146 57.5569 36.5694C57.6583 35.9847 57.7088 35.3647 57.7088 34.7089V33.4409H61.0384V38.0151H61.8795V39.9111H61.307V38.572H57.0312V39.9111H56.4588V38.0151ZM58.2813 34.8985C58.2813 35.4436 58.2424 35.9847 58.1644 36.522C58.0866 37.0592 57.9387 37.5569 57.7205 38.0151H60.4425V33.9979H58.2813V34.8985ZM62.2776 38.6313C62.2152 38.6313 62.1645 38.6273 62.1257 38.6194C62.0867 38.6116 62.0594 38.6036 62.0439 38.5957V37.9677C62.075 37.9755 62.1295 37.9795 62.2075 37.9795C62.3009 37.9795 62.3944 37.948 62.4879 37.8847C62.5891 37.8136 62.6786 37.6714 62.7566 37.4581C62.8421 37.2448 62.9084 36.9407 62.9552 36.5457C63.0096 36.1428 63.0369 35.6095 63.0369 34.9459V33.4409H66.2964V38.572H65.6889V33.9979H63.6094V35.2659C63.6094 35.9058 63.5743 36.443 63.5042 36.8775C63.4341 37.3041 63.3367 37.6477 63.2122 37.9084C63.0954 38.1691 62.9552 38.3547 62.7916 38.4654C62.6281 38.576 62.4566 38.6313 62.2776 38.6313ZM67.2724 38.4891L68.8379 36.5812C68.4173 36.5023 68.0902 36.3402 67.8566 36.0954C67.6307 35.8505 67.5178 35.5029 67.5178 35.0526C67.5178 34.4838 67.7008 34.073 68.0669 33.8201C68.4407 33.5673 68.9819 33.4409 69.6907 33.4409H71.338V38.572H70.7305V36.6405H69.5739H69.5389L67.9617 38.572H67.2724V38.4891ZM70.7305 36.0954V33.9979H69.7375C69.2078 33.9979 68.8029 34.073 68.5225 34.223C68.2421 34.3652 68.1057 34.6457 68.1136 35.0644C68.1136 35.4515 68.2382 35.7202 68.4874 35.8702C68.7366 36.0203 69.1143 36.0954 69.6206 36.0954H70.7305ZM75.3908 41.416V33.4409H75.9516V34.6022C76.0839 34.2626 76.3137 33.9702 76.6408 33.7253C76.9679 33.4725 77.3846 33.3461 77.8909 33.3461C78.2257 33.3461 78.5411 33.4094 78.8371 33.5357C79.133 33.6542 79.39 33.828 79.6082 34.0571C79.8339 34.2863 80.0131 34.5667 80.1456 34.8985C80.2779 35.2225 80.3442 35.5898 80.3442 36.0006C80.3442 36.4272 80.2741 36.8064 80.1339 37.1382C80.0014 37.4621 79.8223 37.7385 79.5965 37.9677C79.3706 38.1968 79.1096 38.3706 78.8138 38.4891C78.5255 38.6076 78.2257 38.6668 77.9142 38.6668C77.4547 38.6668 77.0574 38.5523 76.7226 38.3232C76.3876 38.0862 76.1423 37.7899 75.9866 37.4344V41.416H75.3908ZM77.8558 33.9031C77.5521 33.9031 77.2834 33.9583 77.0497 34.069C76.8238 34.1796 76.6329 34.3257 76.4773 34.5075C76.3214 34.6892 76.2007 34.8985 76.1151 35.1355C76.0371 35.3647 75.9943 35.6017 75.9866 35.8465V36.1191C75.9943 36.3561 76.0371 36.5931 76.1151 36.8301C76.2007 37.0671 76.3214 37.2804 76.4773 37.47C76.6408 37.6517 76.8394 37.8018 77.0731 37.9203C77.3145 38.0388 77.5871 38.098 77.8909 38.098C78.4516 38.098 78.8955 37.9044 79.2227 37.5174C79.5575 37.1303 79.725 36.6208 79.725 35.9887C79.725 35.3251 79.5498 34.8116 79.1993 34.4482C78.8566 34.0848 78.4087 33.9031 77.8558 33.9031ZM83.525 38.6668C83.2134 38.6668 82.9097 38.6076 82.6138 38.4891C82.3255 38.3706 82.0685 38.1968 81.8428 37.9677C81.6169 37.7385 81.4339 37.4621 81.2937 37.1382C81.1612 36.8064 81.0951 36.4272 81.0951 36.0006C81.0951 35.5898 81.1612 35.2225 81.2937 34.8985C81.426 34.5667 81.6012 34.2863 81.8194 34.0571C82.0452 33.828 82.3061 33.6542 82.6021 33.5357C82.898 33.4094 83.2134 33.3461 83.5484 33.3461C84.0312 33.3461 84.4363 33.4646 84.7634 33.7016C85.0905 33.9308 85.3319 34.2072 85.4877 34.5311V33.4409H86.0485V38.572H85.4877V37.3633C85.3319 37.7425 85.0826 38.0546 84.74 38.2995C84.405 38.5443 84.0001 38.6668 83.525 38.6668ZM83.5484 38.098C83.8599 38.098 84.1325 38.0388 84.3662 37.9203C84.6076 37.7939 84.8062 37.6319 84.962 37.4344C85.1256 37.237 85.2462 37.0157 85.3242 36.7708C85.4097 36.526 85.4527 36.285 85.4527 36.048V35.9176C85.4527 35.6648 85.4137 35.4199 85.3358 35.1829C85.2579 34.9381 85.141 34.7207 84.9854 34.5311C84.8296 34.3415 84.6349 34.1915 84.4012 34.0808C84.1676 33.9623 83.8949 33.9031 83.5835 33.9031C83.0304 33.9031 82.5788 34.0848 82.2283 34.4482C81.8856 34.8116 81.7142 35.3251 81.7142 35.9887C81.7142 36.6208 81.8778 37.1303 82.2049 37.5174C82.5398 37.9044 82.9876 38.098 83.5484 38.098ZM86.659 38.0151H87.2665C87.5002 37.628 87.6637 37.146 87.7572 36.5694C87.8585 35.9847 87.9091 35.3647 87.9091 34.7089V33.4409H91.2386V38.0151H92.0797V39.9111H91.5073V38.572H87.2315V39.9111H86.659V38.0151ZM88.4815 34.8985C88.4815 35.4436 88.4427 35.9847 88.3647 36.522C88.2868 37.0592 88.1389 37.5569 87.9208 38.0151H90.6428V33.9979H88.4815V34.8985ZM92.7727 33.4409H93.3685V37.3515L96.7214 33.4409H96.9433V38.572H96.3475V34.6496L92.9946 38.572H92.7727V33.4409ZM100.382 38.6668C100.071 38.6668 99.7668 38.6076 99.4708 38.4891C99.1827 38.3706 98.9257 38.1968 98.6998 37.9677C98.4739 37.7385 98.2909 37.4621 98.1507 37.1382C98.0183 36.8064 97.9521 36.4272 97.9521 36.0006C97.9521 35.5898 98.0183 35.2225 98.1507 34.8985C98.2832 34.5667 98.4584 34.2863 98.6764 34.0571C98.9023 33.828 99.1632 33.6542 99.4592 33.5357C99.7552 33.4094 100.071 33.3461 100.405 33.3461C100.888 33.3461 101.293 33.4646 101.62 33.7016C101.948 33.9308 102.189 34.2072 102.345 34.5311V33.4409H102.905V38.572H102.345V37.3633C102.189 37.7425 101.94 38.0546 101.597 38.2995C101.262 38.5443 100.857 38.6668 100.382 38.6668ZM100.405 38.098C100.717 38.098 100.99 38.0388 101.223 37.9203C101.465 37.7939 101.663 37.6319 101.819 37.4344C101.983 37.237 102.103 37.0157 102.181 36.7708C102.267 36.526 102.31 36.285 102.31 36.048V35.9176C102.31 35.6648 102.271 35.4199 102.193 35.1829C102.115 34.9381 101.998 34.7207 101.842 34.5311C101.687 34.3415 101.492 34.1915 101.258 34.0808C101.025 33.9623 100.752 33.9031 100.44 33.9031C99.8875 33.9031 99.4358 34.0848 99.0853 34.4482C98.7426 34.8116 98.5713 35.3251 98.5713 35.9887C98.5713 36.6208 98.7348 37.1303 99.062 37.5174C99.3968 37.9044 99.8447 38.098 100.405 38.098ZM105.42 33.9979H103.715V33.4409H107.734V33.9979H106.028V38.572H105.42V33.9979ZM110.482 38.6668C110.123 38.6668 109.789 38.5997 109.477 38.4654C109.173 38.331 108.905 38.1454 108.671 37.9084C108.445 37.6636 108.266 37.3792 108.134 37.0552C108.009 36.7234 107.947 36.3639 107.947 35.9769C107.947 35.5977 108.009 35.2462 108.134 34.9222C108.266 34.5982 108.445 34.3218 108.671 34.0927C108.905 33.8557 109.173 33.6739 109.477 33.5476C109.789 33.4132 110.123 33.3461 110.482 33.3461C110.84 33.3461 111.171 33.4132 111.475 33.5476C111.779 33.6739 112.043 33.8557 112.269 34.0927C112.495 34.3218 112.67 34.5982 112.795 34.9222C112.927 35.2462 112.994 35.5977 112.994 35.9769C112.994 36.3639 112.927 36.7234 112.795 37.0552C112.67 37.3792 112.495 37.6636 112.269 37.9084C112.043 38.1454 111.775 38.331 111.463 38.4654C111.159 38.5997 110.832 38.6668 110.482 38.6668ZM110.482 38.1099C110.762 38.1099 111.019 38.0585 111.253 37.9558C111.486 37.8532 111.689 37.707 111.86 37.5174C112.032 37.3278 112.164 37.1026 112.258 36.8419C112.359 36.5812 112.409 36.2928 112.409 35.9769C112.409 35.6688 112.359 35.3884 112.258 35.1355C112.164 34.8827 112.032 34.6655 111.86 34.4837C111.689 34.2941 111.486 34.1519 111.253 34.0571C111.019 33.9545 110.762 33.9031 110.482 33.9031C110.201 33.9031 109.94 33.9545 109.699 34.0571C109.465 34.1519 109.263 34.2941 109.092 34.4837C108.92 34.6655 108.784 34.8827 108.683 35.1355C108.589 35.3884 108.542 35.6688 108.542 35.9769C108.542 36.2928 108.589 36.5812 108.683 36.8419C108.784 37.1026 108.92 37.3278 109.092 37.5174C109.271 37.707 109.477 37.8532 109.711 37.9558C109.944 38.0585 110.201 38.1099 110.482 38.1099ZM113.994 41.416V33.4409H114.555V34.6022C114.687 34.2626 114.917 33.9702 115.244 33.7253C115.571 33.4725 115.988 33.3461 116.494 33.3461C116.829 33.3461 117.144 33.4094 117.44 33.5357C117.736 33.6542 117.993 33.828 118.211 34.0571C118.437 34.2863 118.616 34.5667 118.749 34.8985C118.881 35.2225 118.947 35.5898 118.947 36.0006C118.947 36.4272 118.877 36.8064 118.737 37.1382C118.604 37.4621 118.425 37.7385 118.2 37.9677C117.974 38.1968 117.713 38.3706 117.417 38.4891C117.129 38.6076 116.829 38.6668 116.517 38.6668C116.058 38.6668 115.66 38.5523 115.326 38.3232C114.991 38.0862 114.745 37.7899 114.59 37.4344V41.416H113.994ZM116.459 33.9031C116.155 33.9031 115.886 33.9583 115.653 34.069C115.427 34.1796 115.236 34.3257 115.08 34.5075C114.924 34.6892 114.804 34.8985 114.718 35.1355C114.64 35.3647 114.597 35.6017 114.59 35.8465V36.1191C114.597 36.3561 114.64 36.5931 114.718 36.8301C114.804 37.0671 114.924 37.2804 115.08 37.47C115.244 37.6517 115.442 37.8018 115.676 37.9203C115.918 38.0388 116.19 38.098 116.494 38.098C117.055 38.098 117.499 37.9044 117.826 37.5174C118.161 37.1303 118.328 36.6208 118.328 35.9887C118.328 35.3251 118.153 34.8116 117.802 34.4482C117.46 34.0848 117.012 33.9031 116.459 33.9031ZM123.542 36.0717H120.551V38.572H119.955V33.4409H120.551V35.5147H123.542V33.4409H124.137V38.572H123.542V36.0717ZM127.681 38.6668C127.323 38.6668 126.988 38.5997 126.676 38.4654C126.373 38.331 126.104 38.1454 125.87 37.9084C125.644 37.6636 125.465 37.3792 125.333 37.0552C125.208 36.7234 125.146 36.3639 125.146 35.9769C125.146 35.5977 125.208 35.2462 125.333 34.9222C125.465 34.5982 125.644 34.3218 125.87 34.0927C126.104 33.8557 126.373 33.6739 126.676 33.5476C126.988 33.4132 127.323 33.3461 127.681 33.3461C128.039 33.3461 128.37 33.4132 128.674 33.5476C128.978 33.6739 129.243 33.8557 129.469 34.0927C129.694 34.3218 129.87 34.5982 129.994 34.9222C130.127 35.2462 130.193 35.5977 130.193 35.9769C130.193 36.3639 130.127 36.7234 129.994 37.0552C129.87 37.3792 129.694 37.6636 129.469 37.9084C129.243 38.1454 128.974 38.331 128.662 38.4654C128.359 38.5997 128.032 38.6668 127.681 38.6668ZM127.681 38.1099C127.961 38.1099 128.218 38.0585 128.452 37.9558C128.686 37.8532 128.888 37.707 129.06 37.5174C129.231 37.3278 129.363 37.1026 129.457 36.8419C129.558 36.5812 129.609 36.2928 129.609 35.9769C129.609 35.6688 129.558 35.3884 129.457 35.1355C129.363 34.8827 129.231 34.6655 129.06 34.4837C128.888 34.2941 128.686 34.1519 128.452 34.0571C128.218 33.9545 127.961 33.9031 127.681 33.9031C127.401 33.9031 127.14 33.9545 126.898 34.0571C126.665 34.1519 126.462 34.2941 126.291 34.4837C126.119 34.6655 125.983 34.8827 125.882 35.1355C125.789 35.3884 125.742 35.6688 125.742 35.9769C125.742 36.2928 125.789 36.5812 125.882 36.8419C125.983 37.1026 126.119 37.3278 126.291 37.5174C126.47 37.707 126.676 37.8532 126.91 37.9558C127.144 38.0585 127.401 38.1099 127.681 38.1099ZM131.193 33.4409H131.789V37.3515L135.142 33.4409H135.364V38.572H134.768V34.6496L131.415 38.572H131.193V33.4409ZM133.284 32.564C132.794 32.564 132.4 32.4455 132.104 32.2085C131.816 31.9637 131.68 31.6239 131.696 31.1894H132.233C132.225 31.466 132.315 31.6871 132.502 31.853C132.689 32.0189 132.957 32.1019 133.308 32.1019C133.635 32.1019 133.896 32.0268 134.09 31.8767C134.293 31.7187 134.39 31.4897 134.382 31.1894H134.92C134.92 31.6239 134.772 31.9637 134.476 32.2085C134.18 32.4455 133.783 32.564 133.284 32.564ZM139.431 41.416V33.4409H139.991V34.6022C140.124 34.2626 140.354 33.9702 140.681 33.7253C141.008 33.4725 141.424 33.3461 141.931 33.3461C142.266 33.3461 142.581 33.4094 142.877 33.5357C143.173 33.6542 143.43 33.828 143.648 34.0571C143.874 34.2863 144.053 34.5667 144.186 34.8985C144.318 35.2225 144.384 35.5898 144.384 36.0006C144.384 36.4272 144.314 36.8064 144.174 37.1382C144.041 37.4621 143.862 37.7385 143.636 37.9677C143.41 38.1968 143.15 38.3706 142.854 38.4891C142.566 38.6076 142.266 38.6668 141.954 38.6668C141.495 38.6668 141.097 38.5523 140.762 38.3232C140.428 38.0862 140.182 37.7899 140.026 37.4344V41.416H139.431ZM141.896 33.9031C141.592 33.9031 141.323 33.9583 141.09 34.069C140.864 34.1796 140.673 34.3257 140.517 34.5075C140.361 34.6892 140.241 34.8985 140.155 35.1355C140.077 35.3647 140.034 35.6017 140.026 35.8465V36.1191C140.034 36.3561 140.077 36.5931 140.155 36.8301C140.241 37.0671 140.361 37.2804 140.517 37.47C140.681 37.6517 140.879 37.8018 141.113 37.9203C141.354 38.0388 141.627 38.098 141.931 38.098C142.491 38.098 142.935 37.9044 143.263 37.5174C143.597 37.1303 143.765 36.6208 143.765 35.9887C143.765 35.3251 143.59 34.8116 143.239 34.4482C142.896 34.0848 142.449 33.9031 141.896 33.9031ZM147.74 38.6668C147.373 38.6668 147.032 38.6036 146.712 38.4772C146.401 38.3509 146.128 38.1691 145.894 37.9321C145.661 37.6951 145.474 37.4107 145.333 37.0789C145.201 36.7471 145.135 36.3758 145.135 35.965C145.135 35.5543 145.205 35.1869 145.345 34.863C145.493 34.539 145.684 34.2664 145.918 34.0453C146.158 33.8161 146.432 33.6424 146.735 33.5239C147.039 33.4054 147.354 33.3461 147.682 33.3461C148.079 33.3461 148.425 33.4212 148.721 33.5713C149.025 33.7135 149.278 33.8991 149.481 34.1282C149.684 34.3574 149.836 34.6181 149.936 34.9104C150.037 35.1948 150.088 35.4832 150.088 35.7754V36.0954H145.731C145.738 36.4035 145.796 36.68 145.906 36.9249C146.023 37.1697 146.175 37.383 146.361 37.5648C146.548 37.7385 146.759 37.8729 146.992 37.9677C147.233 38.0625 147.49 38.1099 147.763 38.1099C148.13 38.1099 148.46 38.0388 148.756 37.8966C149.053 37.7465 149.301 37.5529 149.504 37.3159L149.901 37.6833C149.621 38.0229 149.294 38.2718 148.92 38.4298C148.546 38.5879 148.153 38.6668 147.74 38.6668ZM147.67 33.9031C147.436 33.9031 147.214 33.9426 147.004 34.0216C146.794 34.1005 146.602 34.2152 146.432 34.3652C146.261 34.5074 146.116 34.6812 145.999 34.8867C145.89 35.0921 145.812 35.3173 145.766 35.5621H149.481C149.457 35.333 149.399 35.1197 149.305 34.9222C149.212 34.7168 149.088 34.539 148.932 34.3889C148.775 34.2389 148.593 34.1204 148.383 34.0334C148.172 33.9465 147.934 33.9031 147.67 33.9031ZM156.536 33.4409H157.131V38.572H151.091V33.4409H151.687V38.0151H153.813V33.4409H154.409V38.0151H156.536V33.4409ZM160.735 38.6668C160.369 38.6668 160.027 38.6036 159.707 38.4772C159.396 38.3509 159.123 38.1691 158.89 37.9321C158.656 37.6951 158.469 37.4107 158.329 37.0789C158.196 36.7471 158.13 36.3758 158.13 35.965C158.13 35.5543 158.2 35.1869 158.34 34.863C158.488 34.539 158.679 34.2664 158.913 34.0453C159.154 33.8161 159.427 33.6424 159.731 33.5239C160.034 33.4054 160.35 33.3461 160.677 33.3461C161.074 33.3461 161.42 33.4212 161.717 33.5713C162.02 33.7135 162.273 33.8991 162.476 34.1282C162.679 34.3574 162.831 34.6181 162.932 34.9104C163.032 35.1948 163.084 35.4832 163.084 35.7754V36.0954H158.726C158.733 36.4035 158.792 36.68 158.901 36.9249C159.018 37.1697 159.17 37.383 159.357 37.5648C159.544 37.7385 159.754 37.8729 159.988 37.9677C160.229 38.0625 160.486 38.1099 160.759 38.1099C161.125 38.1099 161.455 38.0388 161.752 37.8966C162.048 37.7465 162.296 37.5529 162.499 37.3159L162.897 37.6833C162.616 38.0229 162.289 38.2718 161.915 38.4298C161.541 38.5879 161.149 38.6668 160.735 38.6668ZM160.665 33.9031C160.432 33.9031 160.21 33.9426 159.999 34.0216C159.789 34.1005 159.598 34.2152 159.427 34.3652C159.256 34.5074 159.112 34.6812 158.995 34.8867C158.885 35.0921 158.808 35.3173 158.761 35.5621H162.476C162.453 35.333 162.394 35.1197 162.301 34.9222C162.207 34.7168 162.083 34.539 161.927 34.3889C161.771 34.2389 161.588 34.1204 161.378 34.0334C161.168 33.9465 160.93 33.9031 160.665 33.9031ZM165.005 33.9979H163.3V33.4409H167.318V33.9979H165.613V38.572H165.005V33.9979ZM168.119 33.4409H168.715V35.5977H169.217L171.18 33.4409H171.845V33.5239L169.731 35.7991L172.336 38.4891V38.572H171.624L169.205 36.1309H168.715V38.572H168.119V33.4409ZM172.906 33.4409H173.501V37.3515L176.854 33.4409H177.076V38.572H176.481V34.6496L173.128 38.572H172.906V33.4409Z" fill="#F5F5F5"/>
</g>
</g>
</g>
</svg>
