<svg width="256" height="256" viewBox="0 0 256 256" fill="none" xmlns="http://www.w3.org/2000/svg">
<rect width="256" height="256" rx="128" fill="#474A51"/>
<path d="M19 79.7111V76.7667H31.9561L50.9584 149.347L75.5753 76.7667H81.4775L105.806 149.2L125.097 76.7667H137.621V79.7111L110.413 181H104.223L78.3105 104.886L52.254 181H46.0639L19 79.7111ZM204.17 181C196.109 181 188.719 179.724 182.001 177.172C175.379 174.522 169.668 170.842 164.87 166.131C160.167 161.419 156.472 155.825 153.785 149.347C151.194 142.869 149.898 135.803 149.898 128.147C149.898 120.492 151.194 113.425 153.785 106.947C156.376 100.469 160.023 94.875 164.726 90.1639C169.525 85.3546 175.187 81.625 181.713 78.975C188.335 76.325 195.677 75 203.738 75C210.456 75 216.454 75.8833 221.733 77.65C227.107 79.4167 231.858 81.7232 235.985 84.5694L229.938 95.7583C226.387 93.2065 222.453 91.2435 218.134 89.8695C213.815 88.4954 209.305 87.8083 204.602 87.8083C198.652 87.8083 193.181 88.8389 188.191 90.9C183.296 92.863 179.026 95.6602 175.379 99.2917C171.828 102.825 169.045 107.045 167.029 111.953C165.014 116.86 164.006 122.209 164.006 128C164.006 133.791 165.014 139.14 167.029 144.047C169.045 148.955 171.876 153.175 175.523 156.708C179.17 160.242 183.536 163.039 188.623 165.1C193.709 167.063 199.276 168.044 205.322 168.044C209.928 168.044 214.487 167.357 218.998 165.983C223.604 164.609 227.779 162.254 231.522 158.917L238 169.811C234.641 172.756 230.13 175.356 224.468 177.614C218.806 179.871 212.04 181 204.17 181Z" fill="#F5F5F5"/>
</svg>
